<?xml version="1.0" standalone="no"?>
<!DOCTYPE svg PUBLIC "-//W3C//DTD SVG 20010904//EN"
 "http://www.w3.org/TR/2001/REC-SVG-20010904/DTD/svg10.dtd">
<svg version="1.0" xmlns="http://www.w3.org/2000/svg"
 width="420.000000pt" height="420.000000pt" viewBox="0 0 420.000000 420.000000"
 preserveAspectRatio="xMidYMid meet">
<metadata>
Created by potrace 1.14, written by Peter Selinger 2001-2017
</metadata>
<g transform="translate(0.000000,420.000000) scale(0.100000,-0.100000)"
fill="#000000" stroke="none">
<path d="M1766 3554 c-429 -55 -852 -228 -1206 -493 -137 -102 -297 -253 -316
-298 -52 -122 41 -263 173 -263 69 0 96 15 196 107 326 301 713 487 1162 560
133 21 467 24 590 4 491 -77 869 -258 1208 -578 107 -102 143 -123 207 -123
53 0 98 20 137 61 39 41 53 77 53 131 0 67 -34 121 -135 213 -427 394 -923
623 -1480 685 -126 14 -459 10 -589 -6z"/>
<path d="M1813 2905 c-373 -57 -716 -217 -1004 -471 -105 -92 -128 -124 -136
-192 -11 -97 64 -193 163 -208 65 -9 124 17 203 90 589 550 1483 554 2086 9
129 -117 147 -128 217 -128 47 0 64 6 100 30 51 36 88 103 88 159 0 64 -35
120 -129 206 -271 250 -578 410 -935 486 -104 23 -151 27 -341 30 -154 2 -248
-1 -312 -11z"/>
<path d="M1925 2279 c-183 -24 -378 -94 -531 -190 -122 -78 -242 -182 -265
-233 -47 -103 -1 -217 103 -261 81 -33 137 -14 267 95 158 131 331 198 539
207 283 13 494 -68 713 -273 89 -83 175 -94 259 -33 74 54 101 159 61 238 -11
21 -54 70 -97 110 -173 162 -397 276 -639 326 -96 20 -313 27 -410 14z"/>
<path d="M1780 1035 l0 -555 370 0 370 0 0 105 0 105 -250 0 -250 0 0 450 0
450 -120 0 -120 0 0 -555z"/>
</g>
</svg>
